<?xml version="1.0" standalone="no"?>
<!DOCTYPE svg PUBLIC "-//W3C//DTD SVG 20010904//EN"
 "http://www.w3.org/TR/2001/REC-SVG-20010904/DTD/svg10.dtd">
<svg version="1.0" xmlns="http://www.w3.org/2000/svg"
 width="456.000000pt" height="456.000000pt" viewBox="0 0 456.000000 456.000000"
 preserveAspectRatio="xMidYMid meet">
<metadata>
Created by potrace 1.14, written by Peter Selinger 2001-2017
</metadata>
<g transform="translate(0.000000,456.000000) scale(0.100000,-0.100000)"
fill="#000000" stroke="none">
<path d="M2374 4335 c-4 -8 -12 -15 -20 -15 -8 0 -14 -4 -14 -10 0 -5 -7 -10
-15 -10 -8 0 -15 -4 -15 -10 0 -5 -3 -9 -7 -8 -5 1 -18 -3 -29 -10 -12 -6 -24
-8 -28 -5 -3 3 -6 1 -6 -5 0 -7 -9 -12 -20 -12 -11 0 -20 -4 -20 -10 0 -19
-48 -11 -55 10 -3 11 -10 20 -15 20 -5 0 -11 8 -14 18 -12 37 -107 62 -145 38
-10 -6 -12 -5 -7 2 4 7 2 12 -3 12 -6 0 -11 -4 -11 -9 0 -6 -8 -10 -17 -9 -10
0 -29 -3 -43 -6 -14 -3 -37 -7 -52 -8 -16 -1 -28 -6 -28 -10 0 -4 -10 -8 -23
-8 -12 0 -33 -8 -46 -17 -15 -10 -21 -11 -16 -3 4 7 -7 2 -26 -11 -19 -13 -35
-27 -37 -31 -2 -5 -13 -8 -23 -8 -11 0 -18 -4 -15 -9 8 -12 -47 -22 -58 -10
-6 5 -15 4 -23 -2 -10 -9 -13 -8 -13 2 0 10 -3 10 -12 1 -7 -7 -22 -12 -35
-12 -13 0 -23 -5 -23 -11 0 -5 -5 -7 -11 -3 -6 3 -14 2 -18 -3 -8 -11 -111
-75 -111 -68 0 3 -24 -7 -52 -22 -29 -15 -56 -27 -60 -28 -3 0 -17 -12 -30
-26 -13 -14 -32 -25 -41 -23 -9 1 -15 -1 -13 -5 3 -4 -8 -12 -23 -19 -15 -7
-37 -21 -49 -32 -12 -11 -24 -20 -28 -20 -3 0 -18 -12 -32 -28 -15 -15 -46
-40 -68 -55 -23 -15 -53 -41 -68 -58 -14 -16 -31 -29 -36 -29 -6 0 -10 -5 -10
-11 0 -6 -36 -46 -80 -90 -44 -43 -78 -79 -75 -79 4 0 -28 -40 -61 -76 -12
-12 -19 -25 -17 -28 3 -3 -2 -8 -11 -12 -9 -3 -13 -10 -10 -15 3 -5 0 -9 -5
-9 -6 0 -11 -9 -11 -21 0 -11 -5 -17 -10 -14 -5 3 -10 -1 -10 -10 0 -8 -7 -18
-15 -21 -8 -4 -12 -10 -9 -15 3 -5 1 -9 -5 -9 -6 0 -13 -11 -17 -25 -3 -14 -9
-25 -13 -25 -4 0 -15 -20 -26 -45 -11 -25 -24 -45 -28 -45 -5 0 -6 -4 -3 -9 4
-5 3 -11 -1 -13 -11 -4 -53 -90 -53 -105 0 -7 -5 -13 -12 -13 -6 0 -9 -3 -6
-6 4 -3 0 -21 -8 -39 -7 -18 -16 -48 -18 -67 -6 -50 -10 -61 -24 -76 -7 -8
-10 -18 -7 -23 4 -5 1 -9 -5 -9 -6 0 -9 -4 -5 -9 3 -5 1 -12 -4 -15 -7 -5 -19
-42 -25 -78 -1 -3 -4 -10 -9 -14 -4 -4 -7 -19 -7 -34 0 -14 -6 -32 -12 -39
-11 -11 -10 -13 0 -7 8 5 11 1 9 -13 -2 -11 -6 -24 -10 -27 -4 -4 -2 -13 4
-21 8 -9 8 -13 1 -13 -6 0 -14 -15 -17 -32 -3 -18 -8 -46 -11 -63 -3 -16 -7
-41 -8 -55 -1 -14 -6 -31 -10 -39 -6 -10 -5 -12 2 -7 7 4 12 2 12 -3 0 -6 -5
-11 -11 -11 -8 0 -8 -4 -1 -12 11 -15 10 -68 -3 -88 -5 -9 -4 -11 3 -6 7 4 12
2 12 -3 0 -6 -3 -11 -7 -11 -11 0 -10 -142 1 -159 7 -10 6 -12 -3 -6 -10 6
-11 3 -1 -16 15 -28 19 -109 5 -109 -7 0 -7 -3 0 -8 6 -4 10 -23 10 -42 0 -19
5 -46 12 -60 6 -14 14 -50 18 -80 8 -67 12 -85 31 -128 15 -32 18 -44 30 -107
5 -28 14 -52 54 -140 10 -22 35 -75 54 -118 20 -44 36 -83 36 -88 0 -5 5 -9
11 -9 5 0 7 -4 4 -10 -3 -5 -1 -10 4 -10 6 0 11 -6 11 -13 0 -8 9 -24 20 -37
11 -13 20 -29 20 -37 0 -7 5 -13 10 -13 6 0 15 -11 20 -25 5 -14 14 -25 20
-25 6 0 9 -4 6 -8 -3 -5 6 -20 20 -35 14 -15 22 -27 19 -27 -3 0 3 -8 12 -18
35 -36 73 -82 73 -88 0 -11 28 -33 34 -27 3 4 6 -4 6 -16 0 -13 9 -26 25 -33
13 -6 22 -15 19 -19 -3 -5 2 -9 10 -9 9 0 16 -5 16 -12 0 -13 59 -68 73 -68 5
0 5 -5 2 -10 -3 -6 -2 -10 2 -10 5 0 25 -15 44 -32 53 -48 78 -68 88 -68 5 0
14 -7 21 -15 6 -8 15 -14 18 -14 15 2 52 -14 52 -22 0 -5 7 -9 15 -9 8 0 15
-5 15 -11 0 -5 4 -7 10 -4 5 3 10 -1 10 -9 0 -9 5 -16 11 -16 6 0 30 -14 54
-30 24 -17 48 -30 54 -30 6 0 11 -4 11 -10 0 -5 7 -10 15 -10 8 0 15 -4 15
-10 0 -5 7 -10 15 -10 9 0 25 -9 37 -20 12 -11 30 -20 40 -20 11 0 17 -4 14
-8 -7 -12 55 -14 69 -2 9 7 16 6 25 -5 7 -8 16 -12 21 -9 5 3 9 0 9 -5 0 -6 6
-11 14 -11 8 0 17 -9 21 -19 4 -12 12 -18 21 -14 7 3 14 1 14 -4 0 -10 76 -46
97 -46 7 0 13 -4 13 -9 0 -5 8 -8 18 -7 9 1 24 0 32 -4 8 -3 41 -8 73 -11 32
-2 64 -9 70 -14 7 -5 30 -12 52 -15 57 -7 69 -11 77 -22 5 -6 8 -5 8 3 0 9 6
10 18 4 9 -4 24 -8 32 -7 8 1 21 -4 29 -9 12 -9 13 -8 6 4 -7 12 -6 13 6 3 19
-15 372 -16 363 -1 -5 7 -2 8 7 3 17 -11 49 -14 49 -5 0 4 11 6 25 5 14 -2 25
1 25 7 0 6 6 5 15 -2 8 -7 15 -8 15 -3 0 5 6 10 13 10 44 1 124 17 136 26 12
10 13 9 6 -3 -7 -12 -6 -13 6 -3 8 7 35 15 59 19 25 4 50 14 57 23 10 13 12
13 13 1 0 -11 3 -11 12 -2 7 7 20 12 30 12 10 0 18 4 18 10 0 5 3 9 8 8 18 -4
61 15 55 25 -4 6 0 8 10 4 9 -3 18 -1 21 6 3 9 5 9 5 -1 1 -9 9 -8 34 5 17 9
38 16 45 15 6 -2 12 2 12 8 0 6 4 9 9 6 9 -6 108 43 142 72 48 39 68 59 64 64
-3 2 1 5 8 6 54 4 114 27 134 52 7 8 13 12 13 8 0 -11 60 53 60 64 0 5 4 7 9
3 5 -3 12 4 16 15 4 11 11 18 16 15 5 -4 12 1 15 10 4 8 28 38 55 66 27 28 49
55 49 61 0 5 5 6 10 3 6 -3 10 -1 10 5 0 15 26 41 34 33 3 -4 6 -1 6 5 0 7 8
12 19 12 10 0 30 11 44 24 14 13 28 21 31 18 3 -3 6 0 6 6 0 11 18 36 47 67 7
8 15 24 17 37 2 13 10 22 17 20 9 -2 9 1 -2 14 -9 12 -9 15 -1 10 6 -4 12 -3
12 3 0 5 9 20 20 33 49 58 60 72 60 80 0 5 5 6 10 3 6 -3 10 0 10 8 0 8 7 18
16 21 9 4 14 9 11 12 -3 3 4 16 16 28 12 11 28 31 35 44 31 56 38 67 50 80 11
13 16 28 13 45 0 4 4 7 10 7 5 0 7 5 4 10 -3 6 -2 10 4 10 9 0 27 56 23 73 -1
4 3 7 8 7 5 0 9 3 9 8 -1 4 -1 9 1 12 1 3 4 16 6 30 2 13 9 27 15 30 5 4 9 11
7 16 -1 5 3 19 10 30 6 12 8 24 5 28 -3 3 -2 6 4 6 5 0 10 6 11 13 5 44 15 76
22 72 5 -3 7 3 5 12 -1 10 0 23 4 28 3 6 7 21 8 35 1 14 6 41 11 60 5 20 7 46
5 58 -1 13 0 21 5 19 6 -5 13 51 16 140 0 18 3 33 6 33 3 0 5 33 5 73 0 39 3
80 8 91 5 11 5 16 0 13 -5 -3 -8 32 -8 79 1 47 -3 88 -7 90 -5 3 -4 12 2 19 7
8 7 16 2 19 -5 3 -10 24 -10 47 -1 23 -7 46 -14 50 -11 7 -10 9 1 9 9 0 11 6
6 18 -4 9 -7 27 -6 40 0 13 -2 21 -7 19 -4 -3 -7 7 -8 21 -2 50 -16 117 -26
123 -5 3 -9 9 -9 13 4 25 0 46 -8 42 -5 -4 -7 3 -4 13 3 10 -3 30 -12 45 -9
14 -14 30 -11 35 4 5 2 12 -4 16 -6 4 -8 11 -5 16 4 5 2 9 -4 9 -6 0 -8 6 -5
14 3 8 1 17 -5 21 -6 3 -11 17 -11 31 0 14 -4 22 -10 19 -6 -3 -7 1 -4 9 3 9
1 16 -5 16 -6 0 -11 9 -11 20 0 11 -5 20 -11 20 -5 0 -7 5 -4 10 3 6 2 10 -4
10 -5 0 -12 14 -16 30 -4 17 -11 30 -16 30 -5 0 -9 8 -9 19 0 10 -7 24 -15 31
-9 7 -14 19 -11 26 2 6 -3 20 -12 31 -9 10 -26 36 -37 58 -11 21 -25 43 -30
49 -6 6 -22 27 -35 46 -13 19 -30 39 -37 43 -7 5 -11 12 -8 17 3 4 -7 11 -20
14 -14 4 -23 11 -20 16 3 6 1 10 -4 10 -6 0 -11 7 -11 15 0 8 -3 15 -7 15 -9
1 -117 100 -108 100 3 0 -6 11 -20 25 -14 14 -25 30 -25 36 0 18 -74 90 -87
84 -8 -2 -11 0 -8 5 7 11 -38 60 -55 60 -6 0 -8 5 -5 10 6 9 -8 14 -20 8 -2
-2 -11 6 -19 17 -9 11 -16 16 -16 10 0 -5 -4 -5 -8 2 -4 6 -14 13 -22 15 -8 2
-21 9 -28 16 -8 7 -18 10 -23 7 -5 -4 -9 -1 -9 6 0 7 -3 10 -6 6 -4 -3 -19 0
-35 8 -15 8 -37 15 -49 15 -11 0 -20 4 -20 10 0 5 -3 9 -7 8 -9 -2 -60 18 -87
33 -14 8 -16 8 -10 -3 6 -10 5 -11 -7 -1 -8 6 -23 13 -34 15 -24 4 -45 20 -38
31 2 4 1 13 -4 20 -4 6 -8 15 -8 19 0 3 -10 19 -22 35 -21 29 -28 32 -85 34
-15 0 -30 5 -33 10 -4 5 -14 5 -26 -1 -13 -8 -19 -7 -19 0 0 7 -6 8 -19 0 -13
-7 -22 -7 -26 0 -4 7 -13 7 -26 0 -14 -8 -19 -7 -19 2 0 8 -3 9 -8 3 -4 -6
-14 -10 -22 -10 -8 1 -32 -3 -54 -7 -54 -12 -71 -4 -74 34 -3 40 -22 86 -38
92 -6 2 -24 -2 -39 -10 -15 -8 -30 -12 -33 -10 -2 3 -11 -1 -19 -9 -8 -8 -23
-15 -34 -15 -10 0 -19 -4 -19 -10 0 -5 -9 -10 -19 -10 -11 0 -23 -5 -26 -10
-4 -6 -10 -8 -15 -5 -5 3 -11 1 -15 -5 -10 -16 -45 -12 -45 5 0 8 -4 15 -10
15 -5 0 -10 9 -10 21 0 53 -61 104 -76 64z"/>
</g>
</svg>
